<?xml version="1.0" encoding="utf-8"?>
<svg xmlns="http://www.w3.org/2000/svg" xmlns:xlink="http://www.w3.org/1999/xlink" style="margin: auto; background: none; display: block; shape-rendering: auto;" width="214px" height="214px" viewBox="0 0 100 100" preserveAspectRatio="xMidYMid">
<g transform="rotate(0 50 50)">
  <rect x="48.5" y="26.5" rx="1.5" ry="3.5" width="3" height="7" fill="#fe718d">
    <animate attributeName="opacity" values="1;0" keyTimes="0;1" dur="0.9345794392523364s" begin="-0.8566978193146417s" repeatCount="indefinite"></animate>
  </rect>
</g><g transform="rotate(30 50 50)">
  <rect x="48.5" y="26.5" rx="1.5" ry="3.5" width="3" height="7" fill="#f47e60">
    <animate attributeName="opacity" values="1;0" keyTimes="0;1" dur="0.9345794392523364s" begin="-0.778816199376947s" repeatCount="indefinite"></animate>
  </rect>
</g><g transform="rotate(60 50 50)">
  <rect x="48.5" y="26.5" rx="1.5" ry="3.5" width="3" height="7" fill="#f8b26a">
    <animate attributeName="opacity" values="1;0" keyTimes="0;1" dur="0.9345794392523364s" begin="-0.7009345794392523s" repeatCount="indefinite"></animate>
  </rect>
</g><g transform="rotate(90 50 50)">
  <rect x="48.5" y="26.5" rx="1.5" ry="3.5" width="3" height="7" fill="#abbd81">
    <animate attributeName="opacity" values="1;0" keyTimes="0;1" dur="0.9345794392523364s" begin="-0.6230529595015576s" repeatCount="indefinite"></animate>
  </rect>
</g><g transform="rotate(120 50 50)">
  <rect x="48.5" y="26.5" rx="1.5" ry="3.5" width="3" height="7" fill="#849b87">
    <animate attributeName="opacity" values="1;0" keyTimes="0;1" dur="0.9345794392523364s" begin="-0.545171339563863s" repeatCount="indefinite"></animate>
  </rect>
</g><g transform="rotate(150 50 50)">
  <rect x="48.5" y="26.5" rx="1.5" ry="3.5" width="3" height="7" fill="#6492ac">
    <animate attributeName="opacity" values="1;0" keyTimes="0;1" dur="0.9345794392523364s" begin="-0.4672897196261682s" repeatCount="indefinite"></animate>
  </rect>
</g><g transform="rotate(180 50 50)">
  <rect x="48.5" y="26.5" rx="1.5" ry="3.5" width="3" height="7" fill="#637cb5">
    <animate attributeName="opacity" values="1;0" keyTimes="0;1" dur="0.9345794392523364s" begin="-0.3894080996884735s" repeatCount="indefinite"></animate>
  </rect>
</g><g transform="rotate(210 50 50)">
  <rect x="48.5" y="26.5" rx="1.5" ry="3.5" width="3" height="7" fill="#6a63b6">
    <animate attributeName="opacity" values="1;0" keyTimes="0;1" dur="0.9345794392523364s" begin="-0.3115264797507788s" repeatCount="indefinite"></animate>
  </rect>
</g><g transform="rotate(240 50 50)">
  <rect x="48.5" y="26.5" rx="1.5" ry="3.5" width="3" height="7" fill="#fe718d">
    <animate attributeName="opacity" values="1;0" keyTimes="0;1" dur="0.9345794392523364s" begin="-0.2336448598130841s" repeatCount="indefinite"></animate>
  </rect>
</g><g transform="rotate(270 50 50)">
  <rect x="48.5" y="26.5" rx="1.5" ry="3.5" width="3" height="7" fill="#f47e60">
    <animate attributeName="opacity" values="1;0" keyTimes="0;1" dur="0.9345794392523364s" begin="-0.1557632398753894s" repeatCount="indefinite"></animate>
  </rect>
</g><g transform="rotate(300 50 50)">
  <rect x="48.5" y="26.5" rx="1.5" ry="3.5" width="3" height="7" fill="#f8b26a">
    <animate attributeName="opacity" values="1;0" keyTimes="0;1" dur="0.9345794392523364s" begin="-0.0778816199376947s" repeatCount="indefinite"></animate>
  </rect>
</g><g transform="rotate(330 50 50)">
  <rect x="48.5" y="26.5" rx="1.5" ry="3.5" width="3" height="7" fill="#abbd81">
    <animate attributeName="opacity" values="1;0" keyTimes="0;1" dur="0.9345794392523364s" begin="0s" repeatCount="indefinite"></animate>
  </rect>
</g>
<!-- [ldio] generated by https://loading.io/ --></svg>